<svg width="216" height="147" viewBox="0 0 216 147" fill="none" xmlns="http://www.w3.org/2000/svg">
<path fill-rule="evenodd" clip-rule="evenodd" d="M23.76 125H38.88V124H23.76V125ZM23.76 120H38.88V119H23.76V120ZM23.76 115H38.88V114H23.76V115ZM23.76 110H38.88V109H23.76V110ZM23.76 105H38.88V104H23.76V105ZM23.76 100H38.88V99H23.76V100ZM23.76 95H38.88V94H23.76V95ZM23.76 90H38.88V89H23.76V90ZM23.76 85H38.88V84H23.76V85ZM23.76 80H38.88V79H23.76V80ZM23.76 75H38.88V74H23.76V75ZM23.76 70H38.88V69H23.76V70ZM23.76 65H38.88V64H23.76V65ZM23.76 60H38.88V59H23.76V60ZM23.76 55H38.88V54H23.76V55ZM23.76 50H38.88V49H23.76V50ZM23.76 45H38.88V44H0V44.632H23.76V45ZM0 40H38.88V39H0V40ZM0 35H38.88V34H6.8984C4.7906 34.19 2.49959 34.3128 0 34.408V35ZM20.7806 30H38.88V29H22.1117C21.6815 29.3571 21.2382 29.6898 20.7806 30ZM25.716 25H38.88V24H26.3722C26.157 24.3449 25.9383 24.6781 25.716 25Z" fill="black"/>
</svg>
