<svg width="216" height="147" viewBox="0 0 216 147" fill="none" xmlns="http://www.w3.org/2000/svg">
<path fill-rule="evenodd" clip-rule="evenodd" d="M100.846 24H78.9555C77.8696 24.2892 76.8154 24.6232 75.7945 25H104.054C103.022 24.6215 101.952 24.288 100.846 24ZM111.472 29H68.2132C67.7651 29.3224 67.328 29.6559 66.902 30H112.697C112.302 29.6549 111.894 29.3216 111.472 29ZM116.311 34H95.4996C96.5672 34.2619 97.5697 34.5964 98.5047 35H116.974C116.762 34.66 116.541 34.3266 116.311 34ZM118.938 39H103.995C104.266 39.3211 104.522 39.6546 104.763 40H119.285C119.176 39.662 119.061 39.3287 118.938 39ZM120.206 44H106.711C106.814 44.3269 106.908 44.6603 106.992 45H120.333C120.296 44.6631 120.254 44.3298 120.206 44ZM120.487 49H107.527C107.535 49.2404 107.539 49.4831 107.539 49.728C107.539 49.8187 107.538 49.9093 107.537 50H120.445C120.464 49.6676 120.478 49.3343 120.487 49ZM119.957 54H107.127C107.063 54.3331 106.992 54.6665 106.914 55H119.756C119.828 54.6675 119.895 54.3342 119.957 54ZM118.633 59H105.629C105.494 59.3328 105.352 59.6661 105.203 60H118.273C118.398 59.6675 118.518 59.3341 118.633 59ZM116.519 64H103.107C102.907 64.3326 102.701 64.6659 102.489 65H116.002C116.179 64.6674 116.351 64.3341 116.519 64ZM113.632 69H99.6684C99.412 69.3323 99.1497 69.6656 98.8814 70H112.964C113.191 69.6673 113.414 69.334 113.632 69ZM110.006 74H95.4372C95.1326 74.3321 94.8227 74.6655 94.5072 75H109.196C109.47 74.6672 109.74 74.3338 110.006 74ZM105.692 79H90.5429C90.1987 79.332 89.8496 79.6653 89.4956 80H104.753C105.07 79.667 105.383 79.3337 105.692 79ZM100.76 84H85.1103C84.7344 84.3319 84.3541 84.6652 83.9695 85H99.707C100.061 84.6669 100.413 84.3336 100.76 84ZM95.2948 89H79.2529C78.8523 89.3319 78.4478 89.6652 78.0394 90H94.1461C94.5317 89.6667 94.9146 89.3334 95.2948 89ZM89.3941 94H73.0695C72.6502 94.3318 72.2275 94.6652 71.8013 95H88.1712C88.581 94.6666 88.9887 94.3333 89.3941 94ZM83.1665 99H66.6435C66.2106 99.3318 65.7746 99.6652 65.3355 100H81.8917C82.3183 99.6664 82.7432 99.3331 83.1665 99ZM76.7249 104H60.0439C59.6014 104.332 59.1562 104.665 58.7083 105H75.4209C75.8566 104.666 76.2913 104.333 76.7249 104ZM123.091 109H53.3265C53.3012 109.019 53.276 109.037 53.2507 109.056V110H123.091V109ZM123.091 114H53.2507V115H123.091V114ZM123.091 119H53.2507V120H123.091V119ZM36.288 120V119H24.048V120H36.288ZM24.048 115H36.288V114H24.048V115ZM24.048 110H36.288V109H24.048V110ZM24.048 105H36.288V104H24.048V105ZM24.048 100H36.288V99H24.048V100ZM24.048 95H36.288V94H24.048V95ZM24.048 90H36.288V89H24.048V90ZM24.048 85H36.288V84H24.048V85ZM24.048 80H36.288V79H24.048V80ZM24.048 75H36.288V74H24.048V75ZM24.048 70H36.288V69H24.048V70ZM24.048 65H36.288V64H24.048V65ZM24.048 60H36.288V59H24.048V60ZM24.048 55H36.288V54H24.048V55ZM24.048 50H36.288V49H24.048V50ZM1.58398 45H36.288V44H1.58398V45ZM1.58398 40H36.288V39H1.58398V40ZM15.9729 35H36.288V34H18.25C17.525 34.3718 16.7671 34.7039 15.9729 35ZM23.5142 30H36.288V29H24.3856C24.1011 29.3472 23.8108 29.6803 23.5142 30ZM27.0804 25H36.288V24H27.6214C27.4432 24.3418 27.2629 24.6751 27.0804 25ZM62.844 34C62.5722 34.3274 62.3078 34.6608 62.051 35H80.1967C81.2018 34.5877 82.2444 34.2563 83.3131 34H62.844ZM74.1908 39H59.5154C59.3428 39.3294 59.1763 39.6628 59.0158 40H73.2879C73.5784 39.6516 73.8796 39.3183 74.1908 39ZM70.7693 44H57.4548C57.3521 44.3305 57.2547 44.6638 57.1625 45H70.3363C70.4737 44.6581 70.6181 44.3249 70.7693 44ZM69.1424 49H56.3343C56.2869 49.3312 56.2443 49.6645 56.2063 50H68.954C69.0115 49.6607 69.0744 49.3274 69.1424 49ZM68.5422 54H55.9822C55.982 54.2073 55.9835 54.4153 55.9867 54.624L68.5147 54.912C68.5203 54.6042 68.5295 54.3002 68.5422 54Z" fill="black"/>
</svg>
