<svg width="482" height="382" viewBox="0 0 482 382" fill="none" xmlns="http://www.w3.org/2000/svg">
<g filter="url(#filter0_b_1_3)">
<path d="M1 25C1 11.7452 11.7452 1 25 1H212.967C223.98 1 233.58 8.49514 236.251 19.1792L237.161 22.8209C239.832 33.5049 249.432 41 260.445 41H457C470.255 41 481 51.7452 481 65V357C481 370.255 470.255 381 457 381H25C11.7452 381 1 370.255 1 357V25Z" fill="black"/>
<path fill-rule="evenodd" clip-rule="evenodd" d="M480 358V66C480 53.2975 469.703 43 457 43H260.445C248.973 43 238.973 35.1926 236.191 24.0634L235.281 20.4217C232.721 10.1828 223.521 3 212.967 3H25C12.2975 3 2 13.2975 2 26V358C2 370.703 12.2975 381 25 381H457C469.703 381 480 370.703 480 358ZM25 2C11.7452 2 1 12.7452 1 26V358C1 371.255 11.7452 382 25 382H457C470.255 382 481 371.255 481 358V66C481 52.7452 470.255 42 457 42H260.445C249.432 42 239.832 34.5049 237.161 23.8209L236.251 20.1792C233.58 9.49514 223.98 2 212.967 2H25Z" fill="#CAFB42"/>
</g>
<defs>
<filter id="filter0_b_1_3" x="-9" y="-9" width="500" height="400" filterUnits="userSpaceOnUse" color-interpolation-filters="sRGB">
<feFlood flood-opacity="0" result="BackgroundImageFix"/>
<feGaussianBlur in="BackgroundImageFix" stdDeviation="4.5"/>
<feComposite in2="SourceAlpha" operator="in" result="effect1_backgroundBlur_1_3"/>
<feBlend mode="normal" in="SourceGraphic" in2="effect1_backgroundBlur_1_3" result="shape"/>
</filter>
</defs>
</svg>
