<?xml version="1.0" encoding="utf-8"?>
<!-- Generator: Adobe Illustrator 25.4.1, SVG Export Plug-In . SVG Version: 6.00 Build 0)  -->
<svg version="1.1" id="Layer_1" xmlns="http://www.w3.org/2000/svg" xmlns:xlink="http://www.w3.org/1999/xlink" x="0px" y="0px"
	 viewBox="0 0 118.2 143.7" style="enable-background:new 0 0 118.2 143.7;" xml:space="preserve">
<style type="text/css">
	.st0{fill:#cafb42;}
</style>
<desc></desc>
<g id="Page-1">
	<g id="play">
		<path id="Shape_00000068647408426041856710000014991724744896278157_" class="st0" d="M3,0.8C1.2,1.9,0,3.8,0,6v131.7
			c0,3.3,2.7,6,6,6c3.3,0,6-2.7,6-6V16.6l88.8,52.9l-65.3,42.1c-2.8,1.8-3.6,5.5-1.8,8.3c1.8,2.8,5.5,3.6,8.3,1.8l73.5-47.3
			c1.7-1.1,2.8-3.1,2.7-5.2c0-2.1-1.1-4-2.9-5L9.1,0.8C7.2-0.3,4.9-0.3,3,0.8z"/>
	</g>
</g>
</svg>
