<svg width="480" height="381" viewBox="0 0 480 381" fill="none" xmlns="http://www.w3.org/2000/svg">
<path d="M0 24C0 10.7452 10.7452 0 24 0H211.967C222.98 0 232.58 7.49514 235.251 18.1792L236.161 21.8209C238.832 32.5049 248.432 40 259.445 40H456C469.255 40 480 50.7452 480 64V356C480 369.255 469.255 380 456 380H24C10.7452 380 0 369.255 0 356V24Z" fill="#CAFB42"/>
<path fill-rule="evenodd" clip-rule="evenodd" d="M479 357V65C479 52.2975 468.703 42 456 42H259.445C247.973 42 237.973 34.1926 235.191 23.0634L234.281 19.4217C231.721 9.1828 222.521 2 211.967 2H24C11.2975 2 1 12.2975 1 25V357C1 369.703 11.2975 380 24 380H456C468.703 380 479 369.703 479 357ZM24 1C10.7452 1 0 11.7452 0 25V357C0 370.255 10.7452 381 24 381H456C469.255 381 480 370.255 480 357V65C480 51.7452 469.255 41 456 41H259.445C248.432 41 238.832 33.5049 236.161 22.8209L235.251 19.1792C232.58 8.49514 222.98 1 211.967 1H24Z" fill="#CAFB42"/>
</svg>
