<?xml version="1.0" encoding="utf-8"?>
<!-- Generator: Adobe Illustrator 26.3.1, SVG Export Plug-In . SVG Version: 6.00 Build 0)  -->
<svg version="1.1" id="Layer_1" xmlns="http://www.w3.org/2000/svg" xmlns:xlink="http://www.w3.org/1999/xlink" x="0px" y="0px"
	 viewBox="0 0 216 147" style="enable-background:new 0 0 216 147;" xml:space="preserve">
<style type="text/css">
	.st0{clip-path:url(#SVGID_00000083802785657126630180000010273068862120113818_);}
	.st1{fill-rule:evenodd;clip-rule:evenodd;}
</style>
<g>
	<defs>
		<rect id="SVGID_1_" width="216" height="147"/>
	</defs>
	<clipPath id="SVGID_00000116218327978764183590000011030505113299992973_">
		<use xlink:href="#SVGID_1_"  style="overflow:visible;"/>
	</clipPath>
	<g style="clip-path:url(#SVGID_00000116218327978764183590000011030505113299992973_);">
		<rect x="51.6" y="104" class="st1" width="15.1" height="1"/>
		<rect x="51.6" y="109" class="st1" width="15.1" height="1"/>
		<rect x="51.6" y="114" class="st1" width="15.1" height="1"/>
		<rect x="51.6" y="119" class="st1" width="15.1" height="1"/>
		<rect x="51.6" y="124" class="st1" width="15.1" height="1"/>
		<polygon class="st1" points="49.7,24 66.7,24 66.7,25 48.9,25 		"/>
		<polygon class="st1" points="45,30 45.8,29 66.7,29 66.7,30 		"/>
		<polygon class="st1" points="41.1,35 41.8,34 66.7,34 66.7,35 		"/>
		<polygon class="st1" points="37.1,40 37.9,39 66.7,39 66.7,40 		"/>
		<polygon class="st1" points="33.2,45 34,44 49.7,44 49,45 		"/>
		<polygon class="st1" points="29.3,50 30.1,49 45.9,49 45.1,50 		"/>
		<polygon class="st1" points="25.4,55 26.2,54 42,54 41.3,55 		"/>
		<polygon class="st1" points="21.5,60 22.3,59 38.2,59 37.4,60 		"/>
		<polygon class="st1" points="17.5,65 18.3,64 34.3,64 33.6,65 		"/>
		<polygon class="st1" points="13.6,70 14.4,69 30.5,69 29.7,70 		"/>
		<polygon class="st1" points="9.7,75 10.5,74 26.6,74 25.9,75 		"/>
		<polygon class="st1" points="5.8,80 6.6,79 22.8,79 22,80 		"/>
		<polygon class="st1" points="1.9,85 2.7,84 18.9,84 18.2,85 		"/>
		<rect x="-0.1" y="89" class="st1" width="85.5" height="1"/>
		<rect x="-0.1" y="94" class="st1" width="85.5" height="1"/>
		<rect x="-0.1" y="99" class="st1" width="85.5" height="1"/>
		<rect x="51.6" y="84" class="st1" width="15.1" height="1"/>
		<rect x="51.6" y="79" class="st1" width="15.1" height="1"/>
		<rect x="51.6" y="74" class="st1" width="15.1" height="1"/>
		<rect x="51.6" y="69" class="st1" width="15.1" height="1"/>
		<rect x="51.6" y="64" class="st1" width="15.1" height="1"/>
		<rect x="51.6" y="59" class="st1" width="15.1" height="1"/>
		<rect x="51.6" y="54" class="st1" width="15.1" height="1"/>
		<rect x="51.6" y="49" class="st1" width="15.1" height="1"/>
		<rect x="51.6" y="44" class="st1" width="15.1" height="1"/>
	</g>
</g>
</svg>
